<?xml version="1.0" encoding="utf-8"?>
<!-- Generator: Adobe Illustrator 26.3.1, SVG Export Plug-In . SVG Version: 6.00 Build 0)  -->
<svg version="1.1" id="Layer_1" xmlns="http://www.w3.org/2000/svg" xmlns:xlink="http://www.w3.org/1999/xlink" x="0px" y="0px"
	 viewBox="0 0 319 110" style="enable-background:new 0 0 319 110;" xml:space="preserve">
<style type="text/css">
	.st0{fill:#139AD6;}
	.st1{fill:#263B80;}
	.st2{fill:#232C65;}
</style>
<g>
	<path class="st0" d="M244.4,35.9h-16.8c-1,0-2,1-2.5,2l-7,43.5c0,1,0.5,1.5,1.5,1.5h8.9c1,0,1.5-0.5,1.5-1.5l2-12.4c0-1,1-2,2.5-2
		h5.4c11.4,0,17.8-5.4,19.3-16.3c1-4.5,0-8.4-2-10.9C254.3,37.4,249.8,35.9,244.4,35.9 M246.4,52.3c-1,5.9-5.4,5.9-9.9,5.9h-3
		l2-11.4c0-0.5,0.5-1,1.5-1h1c3,0,5.9,0,7.4,2C246.4,48.3,246.4,49.8,246.4,52.3"/>
	<g>
		<path class="st1" d="M123.2,35.9h-16.8c-1,0-2,1-2.5,2l-7,43.5c0,1,0.5,1.5,1.5,1.5h7.9c1,0,2-1,2.5-2l2-11.8c0-1,1-2,2.5-2h5.4
			c11.4,0,17.8-5.4,19.3-16.3c1-4.5,0-8.4-2-10.9C133.2,37.4,129.2,35.9,123.2,35.9 M125.2,52.3c-1,5.9-5.4,5.9-9.9,5.9h-2.5l2-11.4
			c0-0.5,0.5-1,1.5-1h1c3,0,5.9,0,7.4,2C125.2,48.3,125.7,49.8,125.2,52.3"/>
		<path class="st1" d="M174.2,51.7h-7.9c-0.5,0-1.5,0.5-1.5,1l-0.5,2.5l-0.5-1c-2-2.5-5.4-3.4-9.4-3.4c-8.9,0-16.8,7-18.3,16.3
			c-1,5,0.5,9.4,3,12.4s5.9,3.9,10.4,3.9c7.4,0,11.4-4.5,11.4-4.5l-0.5,2.5c0,1,0.5,1.5,1.5,1.5h7.4c1,0,2-1,2.5-2l4.5-27.7
			C175.6,52.7,174.7,51.7,174.2,51.7 M162.9,67.5c-1,4.5-4.5,7.9-9.4,7.9c-2.5,0-4.5-1-5.4-2c-1-1.5-1.5-3.4-1.5-5.9
			c0.5-4.5,4.5-7.9,8.9-7.9c2.5,0,3.9,1,5.4,2C162.4,63.1,162.9,65.5,162.9,67.5"/>
	</g>
	<path class="st0" d="M294.8,51.7h-7.9c-0.5,0-1.5,0.5-1.5,1l-0.5,2.5l-0.5-1c-2-2.5-5.4-3.4-9.4-3.4c-8.9,0-16.8,7-18.3,16.3
		c-1,5,0.5,9.4,3,12.4s5.9,3.9,10.4,3.9c7.4,0,11.4-4.5,11.4-4.5l-0.5,2.5c0,1,0.5,1.5,1.5,1.5h7.4c1,0,2-1,2.5-2l4.5-27.7
		C296.3,52.7,295.8,51.7,294.8,51.7 M283.5,67.5c-1,4.5-4.5,7.9-9.4,7.9c-2.5,0-4.5-1-5.4-2c-1-1.5-1.5-3.4-1.5-5.9
		c0.5-4.5,4.5-7.9,8.9-7.9c2.5,0,3.9,1,5.4,2C283.5,63.1,284,65.5,283.5,67.5"/>
	<path class="st1" d="M217.2,51.7h-8.4c-1,0-1.5,0.5-2,1l-10.9,16.8l-5-15.8c-0.5-1-1-1.5-2.5-1.5h-7.9c-1,0-1.5,1-1.5,2l8.9,26.2
		l-8.4,11.8c-0.5,1,0,2.5,1,2.5h7.9c1,0,1.5-0.5,2-1l27.2-39C219.2,53.2,218.2,51.7,217.2,51.7"/>
	<path class="st0" d="M304.2,37.4l-6.9,44.5c0,1,0.5,1.5,1.5,1.5h7c1,0,2-1,2.5-2l7-43.5c0-1-0.5-1.5-1.5-1.5h-8
		C305.3,35.9,304.7,36.4,304.2,37.4"/>
	<path class="st1" d="M60.5,21.1c-3.4-3.9-9.9-5.9-18.8-5.9H17c-1.5,0-3,1.5-3.4,3L3.7,83.1c0,1.5,1,2.5,2,2.5h15.4L25,61.3v1
		c0.5-1.5,2-3,3.4-3h7.4c14.3,0,25.2-5.9,28.6-22.2c0-0.5,0-1,0-1.5c-0.5,0-0.5,0,0,0C64.9,29,64,25.1,60.5,21.1"/>
	<path class="st0" d="M64,35.4L64,35.4c0,0.5,0,1,0,1.5c-3.4,16.8-14.3,22.2-28.6,22.2H28c-1.5,0-3,1.5-3.4,3l-5,30.2c0,1,0.5,2,2,2
		h12.9c1.5,0,3-1,3-2.5v-0.5l2.4-15.4v-1c0-1.5,1.5-2.5,3-2.5h2c12.4,0,22.2-5,24.7-19.8c1-5.9,0.5-11.4-2.5-14.8
		C66.5,36.9,65.4,35.9,64,35.4"/>
	<path class="st2" d="M60.5,33.9c-0.5,0-1-0.5-1.5-0.5c-0.6,0-1,0-1.5-0.5c-2-0.5-3.9-0.5-6.4-0.5H31.8c-0.5,0-1,0-1.5,0.5
		c-1,0.5-1.5,1.5-1.5,2.5l-3.9,25.7v1c0.5-1.5,2-3,3.4-3h7.4c14.3,0,25.2-5.9,28.6-22.2c0-0.5,0-1,0.5-1.5c-1-0.5-1.5-1-2.5-1
		C61,33.9,61,33.9,60.5,33.9"/>
</g>
</svg>
