<?xml version="1.0" encoding="UTF-8"?>
<svg width="101px" height="61px" viewBox="0 0 101 61" version="1.1" xmlns="http://www.w3.org/2000/svg" xmlns:xlink="http://www.w3.org/1999/xlink">
    <title>Group</title>
    <g id="Page-1" stroke="none" stroke-width="1" fill="none" fill-rule="evenodd">
        <g id="Group" transform="translate(1.000000, 1.000000)" fill-rule="nonzero">
            <rect id="Rectangle" stroke="#B8B8B8" fill="#FFFFFF" x="0" y="0" width="99" height="59" rx="4"></rect>
            <g id="+1" transform="translate(31.000000, 15.000000)" fill="#464646">
                <polygon id="Path" points="7.79296875 24.1210938 7.79296875 16.2695312 0 16.2695312 0 12.9882812 7.79296875 12.9882812 7.79296875 5.1953125 11.1132812 5.1953125 11.1132812 12.9882812 18.90625 12.9882812 18.90625 16.2695312 11.1132812 16.2695312 11.1132812 24.1210938"></polygon>
                <path d="M36.0351562,28.75 L32.5195312,28.75 L32.5195312,6.34765625 C31.6731771,7.15494792 30.563151,7.96223958 29.1894531,8.76953125 C27.8157552,9.57682292 26.5820312,10.1822917 25.4882812,10.5859375 L25.4882812,7.1875 C27.4544271,6.26302083 29.1731771,5.14322917 30.6445312,3.828125 C32.1158854,2.51302083 33.1575521,1.23697917 33.7695312,0 L36.0351562,0 L36.0351562,28.75 Z" id="Path"></path>
            </g>
        </g>
    </g>
</svg>