<?xml version="1.0" encoding="UTF-8"?>
<svg width="101px" height="61px" viewBox="0 0 101 61" version="1.1" xmlns="http://www.w3.org/2000/svg" xmlns:xlink="http://www.w3.org/1999/xlink">
    <title>Group 2</title>
    <g id="Page-1" stroke="none" stroke-width="1" fill="none" fill-rule="evenodd">
        <g id="Group-2" transform="translate(1.000000, 1.000000)" fill-rule="nonzero">
            <rect id="Rectangle-Copy" stroke="#B8B8B8" fill="#FFFFFF" x="0" y="0" width="99" height="59" rx="4"></rect>
            <g id="+2" transform="translate(28.000000, 15.000000)" fill="#464646">
                <polygon id="Path" points="7.79296875 24.1210938 7.79296875 16.2695312 0 16.2695312 0 12.9882812 7.79296875 12.9882812 7.79296875 5.1953125 11.1132812 5.1953125 11.1132812 12.9882812 18.90625 12.9882812 18.90625 16.2695312 11.1132812 16.2695312 11.1132812 24.1210938"></polygon>
                <path d="M41.2695312,25.3710938 L41.2695312,28.75 L22.34375,28.75 C22.3177083,27.9036458 22.4544271,27.0898438 22.7539062,26.3085938 C23.2356771,25.0195312 24.0071615,23.75 25.0683594,22.5 C26.1295573,21.25 27.6627604,19.8046875 29.6679688,18.1640625 C32.7799479,15.6119792 34.8828125,13.5904948 35.9765625,12.0996094 C37.0703125,10.608724 37.6171875,9.19921875 37.6171875,7.87109375 C37.6171875,6.47786458 37.1191406,5.30273438 36.1230469,4.34570312 C35.1269531,3.38867188 33.828125,2.91015625 32.2265625,2.91015625 C30.5338542,2.91015625 29.1796875,3.41796875 28.1640625,4.43359375 C27.1484375,5.44921875 26.6341146,6.85546875 26.6210938,8.65234375 L23.0078125,8.28125 C23.2552083,5.5859375 24.1861979,3.53190104 25.8007812,2.11914062 C27.4153646,0.706380208 29.5833333,0 32.3046875,0 C35.0520833,0 37.2265625,0.76171875 38.828125,2.28515625 C40.4296875,3.80859375 41.2304688,5.69661458 41.2304688,7.94921875 C41.2304688,9.09505208 40.9960938,10.2213542 40.5273438,11.328125 C40.0585938,12.4348958 39.280599,13.6002604 38.1933594,14.8242188 C37.1061198,16.0481771 35.2994792,17.7278646 32.7734375,19.8632812 C30.6640625,21.6341146 29.3098958,22.8352865 28.7109375,23.4667969 C28.1119792,24.0983073 27.6171875,24.7330729 27.2265625,25.3710938 L41.2695312,25.3710938 Z" id="Path"></path>
            </g>
        </g>
    </g>
</svg>