<?xml version="1.0" encoding="UTF-8"?>
<svg width="101px" height="61px" viewBox="0 0 101 61" version="1.1" xmlns="http://www.w3.org/2000/svg" xmlns:xlink="http://www.w3.org/1999/xlink">
    <title>Group 3</title>
    <g id="Page-1" stroke="none" stroke-width="1" fill="none" fill-rule="evenodd">
        <g id="Group-3" transform="translate(1.000000, 1.000000)" fill-rule="nonzero">
            <rect id="Rectangle-Copy-2" stroke="#B8B8B8" fill="#FFFFFF" x="0" y="0" width="99" height="59" rx="4"></rect>
            <g id="+3" transform="translate(29.000000, 15.000000)" fill="#464646">
                <polygon id="Path" points="7.79296875 24.1210938 7.79296875 16.2695312 0 16.2695312 0 12.9882812 7.79296875 12.9882812 7.79296875 5.1953125 11.1132812 5.1953125 11.1132812 12.9882812 18.90625 12.9882812 18.90625 16.2695312 11.1132812 16.2695312 11.1132812 24.1210938"></polygon>
                <path d="M22.8125,21.1914062 L26.328125,20.7226562 C26.7317708,22.7148438 27.4186198,24.1503906 28.3886719,25.0292969 C29.358724,25.9082031 30.5403646,26.3476562 31.9335938,26.3476562 C33.5872396,26.3476562 34.983724,25.7747396 36.1230469,24.6289062 C37.2623698,23.4830729 37.8320312,22.0638021 37.8320312,20.3710938 C37.8320312,18.7565104 37.3046875,17.4251302 36.25,16.3769531 C35.1953125,15.328776 33.8541667,14.8046875 32.2265625,14.8046875 C31.5625,14.8046875 30.7356771,14.9348958 29.7460938,15.1953125 L30.1367188,12.109375 C30.3710938,12.1354167 30.5598958,12.1484375 30.703125,12.1484375 C32.2005208,12.1484375 33.5481771,11.7578125 34.7460938,10.9765625 C35.9440104,10.1953125 36.5429688,8.99088542 36.5429688,7.36328125 C36.5429688,6.07421875 36.1067708,5.00651042 35.234375,4.16015625 C34.3619792,3.31380208 33.2356771,2.890625 31.8554688,2.890625 C30.4882812,2.890625 29.3489583,3.3203125 28.4375,4.1796875 C27.5260417,5.0390625 26.9401042,6.328125 26.6796875,8.046875 L23.1640625,7.421875 C23.59375,5.06510417 24.5703125,3.23893229 26.09375,1.94335938 C27.6171875,0.647786458 29.5117188,0 31.7773438,0 C33.3398438,0 34.7786458,0.335286458 36.09375,1.00585938 C37.4088542,1.67643229 38.4147135,2.59114583 39.1113281,3.75 C39.8079427,4.90885417 40.15625,6.13932292 40.15625,7.44140625 C40.15625,8.67838542 39.8242188,9.8046875 39.1601562,10.8203125 C38.4960938,11.8359375 37.5130208,12.6432292 36.2109375,13.2421875 C37.9036458,13.6328125 39.21875,14.4433594 40.15625,15.6738281 C41.09375,16.9042969 41.5625,18.4440104 41.5625,20.2929688 C41.5625,22.7929688 40.6510417,24.9121094 38.828125,26.6503906 C37.0052083,28.3886719 34.7005208,29.2578125 31.9140625,29.2578125 C29.4010417,29.2578125 27.3144531,28.5091146 25.6542969,27.0117188 C23.9941406,25.5143229 23.046875,23.5742188 22.8125,21.1914062 Z" id="Path"></path>
            </g>
        </g>
    </g>
</svg>