<?xml version="1.0" encoding="UTF-8"?>
<svg width="101px" height="61px" viewBox="0 0 101 61" version="1.1" xmlns="http://www.w3.org/2000/svg" xmlns:xlink="http://www.w3.org/1999/xlink">
    <title>Group 5</title>
    <g id="Page-1" stroke="none" stroke-width="1" fill="none" fill-rule="evenodd">
        <g id="Group-5" transform="translate(1.000000, 1.000000)" fill-rule="nonzero">
            <rect id="Rectangle-Copy-4" stroke="#B8B8B8" fill="#FFFFFF" x="0" y="0" width="99" height="59" rx="4"></rect>
            <g id="+5" transform="translate(28.000000, 15.000000)" fill="#464646">
                <polygon id="Path" points="7.79296875 23.6132812 7.79296875 15.7617188 0 15.7617188 0 12.4804688 7.79296875 12.4804688 7.79296875 4.6875 11.1132812 4.6875 11.1132812 12.4804688 18.90625 12.4804688 18.90625 15.7617188 11.1132812 15.7617188 11.1132812 23.6132812"></polygon>
                <path d="M22.7929688,20.7421875 L26.484375,20.4296875 C26.7578125,22.2265625 27.3925781,23.577474 28.3886719,24.4824219 C29.3847656,25.3873698 30.5859375,25.8398438 31.9921875,25.8398438 C33.6848958,25.8398438 35.1171875,25.2018229 36.2890625,23.9257812 C37.4609375,22.6497396 38.046875,20.9570312 38.046875,18.8476562 C38.046875,16.8424479 37.483724,15.2604167 36.3574219,14.1015625 C35.2311198,12.9427083 33.7565104,12.3632812 31.9335938,12.3632812 C30.8007812,12.3632812 29.7786458,12.6204427 28.8671875,13.1347656 C27.9557292,13.6490885 27.2395833,14.3164062 26.71875,15.1367188 L23.4179688,14.7070312 L26.1914062,0 L40.4296875,0 L40.4296875,3.359375 L29.0039062,3.359375 L27.4609375,11.0546875 C29.1796875,9.85677083 30.9830729,9.2578125 32.8710938,9.2578125 C35.3710938,9.2578125 37.4804688,10.1236979 39.1992188,11.8554688 C40.9179688,13.5872396 41.7773438,15.8138021 41.7773438,18.5351562 C41.7773438,21.1263021 41.0221354,23.3658854 39.5117188,25.2539062 C37.6757812,27.5716146 35.1692708,28.7304688 31.9921875,28.7304688 C29.3880208,28.7304688 27.2623698,28.0013021 25.6152344,26.5429688 C23.968099,25.0846354 23.0273438,23.1510417 22.7929688,20.7421875 Z" id="Path"></path>
            </g>
        </g>
    </g>
</svg>