<?xml version="1.0" encoding="UTF-8"?>
<svg width="101px" height="61px" viewBox="0 0 101 61" version="1.1" xmlns="http://www.w3.org/2000/svg" xmlns:xlink="http://www.w3.org/1999/xlink">
    <title>Group 6</title>
    <g id="Page-1" stroke="none" stroke-width="1" fill="none" fill-rule="evenodd">
        <g id="Group-6" transform="translate(1.000000, 1.000000)" fill-rule="nonzero">
            <rect id="Rectangle-Copy-5" stroke="#B8B8B8" fill="#FFFFFF" x="0" y="0" width="99" height="59" rx="4"></rect>
            <g id="+6" transform="translate(29.000000, 14.000000)" fill="#464646">
                <polygon id="Path" points="7.79296875 24.1210938 7.79296875 16.2695312 0 16.2695312 0 12.9882812 7.79296875 12.9882812 7.79296875 5.1953125 11.1132812 5.1953125 11.1132812 12.9882812 18.90625 12.9882812 18.90625 16.2695312 11.1132812 16.2695312 11.1132812 24.1210938"></polygon>
                <path d="M41.0351562,7.12890625 L37.5390625,7.40234375 C37.2265625,6.02213542 36.7838542,5.01953125 36.2109375,4.39453125 C35.2604167,3.39192708 34.0885417,2.890625 32.6953125,2.890625 C31.5755208,2.890625 30.5924479,3.203125 29.7460938,3.828125 C28.6393229,4.63541667 27.7669271,5.81380208 27.1289062,7.36328125 C26.4908854,8.91276042 26.1588542,11.1197917 26.1328125,13.984375 C26.9791667,12.6953125 28.0143229,11.7382812 29.2382812,11.1132812 C30.4622396,10.4882812 31.7447917,10.1757812 33.0859375,10.1757812 C35.4296875,10.1757812 37.4251302,11.0384115 39.0722656,12.7636719 C40.719401,14.4889323 41.5429688,16.71875 41.5429688,19.453125 C41.5429688,21.25 41.155599,22.9199219 40.3808594,24.4628906 C39.6061198,26.0058594 38.5416667,27.1875 37.1875,28.0078125 C35.8333333,28.828125 34.296875,29.2382812 32.578125,29.2382812 C29.6484375,29.2382812 27.2591146,28.1608073 25.4101562,26.0058594 C23.5611979,23.8509115 22.6367188,20.2994792 22.6367188,15.3515625 C22.6367188,9.81770833 23.6588542,5.79427083 25.703125,3.28125 C27.4869792,1.09375 29.8893229,0 32.9101562,0 C35.1627604,0 37.0084635,0.631510417 38.4472656,1.89453125 C39.8860677,3.15755208 40.7486979,4.90234375 41.0351562,7.12890625 Z M26.6796875,19.4726562 C26.6796875,20.6835938 26.936849,21.8424479 27.4511719,22.9492188 C27.9654948,24.0559896 28.6848958,24.8990885 29.609375,25.4785156 C30.5338542,26.0579427 31.5039062,26.3476562 32.5195312,26.3476562 C34.0039062,26.3476562 35.2799479,25.7486979 36.3476562,24.5507812 C37.4153646,23.3528646 37.9492188,21.7252604 37.9492188,19.6679688 C37.9492188,17.6888021 37.421875,16.1295573 36.3671875,14.9902344 C35.3125,13.8509115 33.984375,13.28125 32.3828125,13.28125 C30.7942708,13.28125 29.4466146,13.8509115 28.3398438,14.9902344 C27.2330729,16.1295573 26.6796875,17.6236979 26.6796875,19.4726562 Z" id="Shape"></path>
            </g>
        </g>
    </g>
</svg>