<?xml version="1.0" encoding="UTF-8"?>
<svg width="100px" height="60px" viewBox="0 0 100 60" version="1.1" xmlns="http://www.w3.org/2000/svg" xmlns:xlink="http://www.w3.org/1999/xlink">
    <title>Paypal-light</title>
    <g id="Payment-badge-set" stroke="none" stroke-width="1" fill="none" fill-rule="evenodd">
        <g id="Dark-Payment-badges" transform="translate(-742.000000, -265.000000)">
            <g id="Paypal-light" transform="translate(792.000000, 295.000000) scale(1, -1) translate(-792.000000, -295.000000) translate(742.000000, 265.000000)">
                <path d="M96.0026765,0.5 C96.9680908,0.5 97.8420478,0.892680293 98.4747877,1.52688161 C99.1082216,2.16177841 99.5,3.03872608 99.5,4.0065556 L99.5,4.0065556 L99.5,55.9934444 C99.5,56.9607602 99.1069405,57.8365056 98.4739833,58.4709248 C97.8399875,59.1063848 96.9651051,59.5 96.0026765,59.5 L96.0026765,59.5 L3.99732351,59.5 C3.03190924,59.5 2.15795223,59.1073197 1.52521226,58.4731184 C0.891778425,57.8382216 0.5,56.9612739 0.5,55.9934444 L0.5,55.9934444 L0.5,4.0065556 C0.5,3.03923978 0.893059456,2.16349437 1.52601673,1.52907524 C2.16001254,0.893615179 3.03489488,0.5 3.99732351,0.5 L3.99732351,0.5 Z" id="Rectangle" stroke="#0079C1" fill="#FFFFFF"></path>
                <path d="M61.2348152,34.2798329 C60.9633108,32.4707821 59.6019464,32.4707821 58.2847654,32.4707821 L57.5355668,32.4707821 L58.0612865,35.8484567 C58.0926632,36.0524948 58.2661956,36.2025992 58.4698239,36.2025992 L58.8136869,36.2025992 C59.7101639,36.2025992 60.5566944,36.2025992 60.9934068,35.6847064 C61.2546658,35.3747505 61.3334277,34.9146902 61.2348152,34.2798329 M60.6617103,39 L55.6952275,39 C55.3552066,39 55.0664129,38.7491761 55.0132646,38.4086795 L53.005156,25.4854026 C52.9654549,25.23068 53.1601185,25 53.4136934,25 L55.9622496,25 C56.199816,25 56.4021637,25.1754467 56.4393034,25.4132745 L57.0092067,29.0775122 C57.0617146,29.4180088 57.3511486,29.6688327 57.6905292,29.6688327 L59.2619254,29.6688327 C62.5334263,29.6688327 64.4217911,31.275145 64.9148535,34.4598283 C65.1370517,35.8517057 64.9238183,36.9459735 64.2815565,37.712091 C63.5752607,38.5542353 62.3233945,39 60.6617103,39" id="Shape" fill="#0079C1"></path>
                <path d="M26.2348195,34.2798329 C25.9633153,32.4707821 24.6019524,32.4707821 23.284773,32.4707821 L22.5355752,32.4707821 L23.0612943,35.8484567 C23.092671,36.0524948 23.2662031,36.2025992 23.4698313,36.2025992 L23.8136938,36.2025992 C24.7101699,36.2025992 25.5566994,36.2025992 25.9934113,35.6847064 C26.25467,35.3747505 26.3334318,34.9146902 26.2348195,34.2798329 M25.6617152,39 L20.6952379,39 C20.3552174,39 20.066424,38.7491761 20.0132758,38.4086795 L18.0051695,25.4854026 C17.9654684,25.23068 18.1594914,25 18.4137064,25 L20.7855259,25 C21.1249061,25 21.4136994,25.2508239 21.4668477,25.5906707 L22.0092157,29.0775122 C22.0617235,29.4180088 22.3511572,29.6688327 22.6905374,29.6688327 L24.2619319,29.6688327 C27.533429,29.6688327 29.4217918,31.275145 29.9148536,34.4598283 C30.1370516,35.8517057 29.9238184,36.9459735 29.2815573,37.712091 C28.5752623,38.5542353 27.3233975,39 25.6617152,39" id="Shape" fill="#00457C"></path>
                <path d="M37.1629973,28.9691338 C36.9264403,27.5605709 35.8167965,26.6146698 34.4007488,26.6146698 C33.6910776,26.6146698 33.1224181,26.845005 32.757369,27.2804514 C32.3956146,27.711915 32.2592154,28.3272486 32.3738698,29.0116163 C32.5939536,30.408231 33.7220474,31.3840027 35.1163504,31.3840027 C35.8115251,31.3840027 36.375572,31.1516761 36.7478693,30.7122469 C37.1228024,30.2694988 37.2704035,29.6508463 37.1629973,28.9691338 M40.5736363,33.7676734 L38.1263579,33.7676734 C37.9168171,33.7676734 37.7382461,33.6143379 37.7052995,33.4052439 L37.5978933,32.7162297 L37.4272296,32.9658148 C36.8967883,33.740458 35.7153208,34 34.5358301,34 C31.8322266,34 29.5226653,31.9356123 29.0732727,29.0408231 C28.8393514,27.5964155 29.1714538,26.2163956 29.9845775,25.253236 C30.731149,24.3684036 31.7966442,24 33.0664088,24 C35.2461602,24 36.454644,25.4098905 36.454644,25.4098905 L36.3452611,24.7248589 C36.3044072,24.4646532 36.504064,24.2290076 36.7663195,24.2290076 L38.9697926,24.2290076 C39.3196862,24.2290076 39.6168651,24.4845669 39.6715566,24.832393 L40.9946947,33.2718221 C41.0355486,33.5320279 40.8352328,33.7676734 40.5736363,33.7676734" id="Shape" fill="#00457C"></path>
                <path d="M73.1629973,28.9691338 C72.9264403,27.5605709 71.8167965,26.6146698 70.4007488,26.6146698 C69.6910776,26.6146698 69.1224181,26.845005 68.757369,27.2804514 C68.3949557,27.711915 68.2592154,28.3272486 68.3738698,29.0116163 C68.5939536,30.408231 69.7220474,31.3840027 71.1163504,31.3840027 C71.8115251,31.3840027 72.375572,31.1516761 72.7478693,30.7122469 C73.1228024,30.2694988 73.2704035,29.6508463 73.1629973,28.9691338 M76.5736363,33.7676734 L74.1263579,33.7676734 C73.9168171,33.7676734 73.7382461,33.6143379 73.7052995,33.4052439 L73.5978933,32.7162297 L73.4265707,32.9658148 C72.8967883,33.740458 71.7153208,34 70.5358301,34 C67.8322266,34 65.5226653,31.9356123 65.0732727,29.0408231 C64.8393514,27.5964155 65.1714538,26.2163956 65.9845775,25.253236 C66.731149,24.3684036 67.7966442,24 69.0664088,24 C71.2461602,24 72.454644,25.4098905 72.454644,25.4098905 L72.3452611,24.7248589 C72.3044072,24.4646532 72.504064,24.2290076 72.7663195,24.2290076 L74.9697926,24.2290076 C75.3196862,24.2290076 75.6168651,24.4845669 75.6715566,24.832393 L76.9946947,33.2718221 C77.0355486,33.5320279 76.8352328,33.7676734 76.5736363,33.7676734" id="Shape" fill="#0079C1"></path>
                <path d="M52.6033718,34 L50.3160447,34 C50.0972995,34 49.8926471,33.8904929 49.7701008,33.7073623 L46.614533,29.0152609 L45.2775526,33.5242318 C45.1936084,33.8063518 44.9362611,34 44.6446008,34 L42.3964885,34 C42.1250484,34 41.9338762,33.7302537 42.0214968,33.471025 L44.5398237,26.0059806 L42.1710033,22.631058 C41.9853456,22.3662611 42.1728415,22 42.4945256,22 L44.7794018,22 C44.9956961,22 45.1985102,22.1070324 45.322282,22.2864508 L52.9287323,33.3720355 C53.1107136,33.637451 52.9232177,34 52.6033718,34" id="Shape" fill="#00457C"></path>
                <path d="M77.9797838,38.6452077 L76.0050086,25.4854026 C75.966543,25.23068 76.1545282,25 76.4008322,25 L78.3873952,25 C78.7162142,25 78.996641,25.2508239 79.0475148,25.5913205 L80.9949918,38.5145974 C81.0334574,38.76932 80.8454722,39 80.5985478,39 L78.3762278,39 C78.178316,39 78.010184,38.8498956 77.9797838,38.6452077" id="Shape" fill="#0079C1"></path>
            </g>
        </g>
    </g>
</svg>