<?xml version="1.0" encoding="UTF-8"?>
<svg width="230px" height="129px" viewBox="0 0 230 129" version="1.1" xmlns="http://www.w3.org/2000/svg" xmlns:xlink="http://www.w3.org/1999/xlink">
    <title>Group 8 Copy</title>
    <g id="Page-1" stroke="none" stroke-width="1" fill="none" fill-rule="evenodd">
        <g id="Artboard" transform="translate(-1605.000000, -574.000000)">
            <g id="redirect" transform="translate(1606.000000, 575.000000)">
                <path d="M199.130693,75.556962 L199.130693,123.78481 C199.130693,125.553165 197.686554,127 195.921496,127 L3.20919731,127 C1.44413879,127 0,125.553165 0,123.78481 L0,3.21518987 C0,1.44683544 1.44413879,0 3.20919731,0 L195.921496,0 C197.686554,0 199.130693,1.44683544 199.130693,3.21518987 L199.130693,62.6962025 M0,16.0759494 L199.130693,16.0759494" id="Shape" stroke="#888888" stroke-width="2"></path>
                <ellipse id="Oval" fill="#888888" fill-rule="nonzero" cx="8.31584158" cy="7.88120567" rx="2.92178218" ry="2.92730496"></ellipse>
                <ellipse id="Oval" fill="#888888" fill-rule="nonzero" cx="17.3059406" cy="7.88120567" rx="2.92178218" ry="2.92730496"></ellipse>
                <ellipse id="Oval" fill="#888888" fill-rule="nonzero" cx="26.2960396" cy="7.88120567" rx="2.92178218" ry="2.92730496"></ellipse>
                <path d="M167.665347,69.1294326 L226.360273,69.1294326 M220.602733,62.5992908 L227,69.1294326 L220.602733,75.6595745" id="Shape" stroke="#888888" stroke-width="2"></path>
            </g>
        </g>
    </g>
</svg>